<svg aria-hidden="true" style="position: absolute; width: 0; height: 0; overflow: hidden;" version="1.1" xmlns="http://www.w3.org/2000/svg" xmlns:xlink="http://www.w3.org/1999/xlink">
<defs>

<symbol id="icon-phone" viewBox="0 0 32 32">
<path d="M22.069 29.511c-1.92-0.071-7.361-0.823-13.060-6.52-5.697-5.699-6.448-11.139-6.52-13.060-0.107-2.928 2.136-5.772 4.727-6.883 0.312-0.135 0.654-0.186 0.991-0.149s0.66 0.162 0.935 0.361c2.133 1.555 3.605 3.907 4.869 5.756 0.278 0.406 0.397 0.901 0.334 1.389s-0.303 0.936-0.675 1.259l-2.601 1.932c-0.126 0.091-0.214 0.224-0.249 0.375s-0.014 0.31 0.060 0.446c0.589 1.071 1.637 2.665 2.837 3.865s2.871 2.317 4.016 2.973c0.144 0.081 0.313 0.103 0.472 0.063s0.298-0.14 0.386-0.279l1.693-2.577c0.311-0.414 0.771-0.691 1.282-0.773s1.034 0.036 1.46 0.33c1.876 1.299 4.065 2.745 5.668 4.797 0.215 0.277 0.353 0.607 0.397 0.955s-0.006 0.702-0.145 1.025c-1.116 2.604-3.94 4.821-6.877 4.713z"></path>
</symbol>
<symbol id="icon-mail" viewBox="0 0 32 32">
<path d="M26.667 5.333h-21.333c-1.467 0-2.667 1.2-2.667 2.667v16c0 1.467 1.2 2.667 2.667 2.667h21.333c1.467 0 2.667-1.2 2.667-2.667v-16c0-1.467-1.2-2.667-2.667-2.667zM26.133 11l-8.72 5.453c-0.867 0.547-1.96 0.547-2.827 0l-8.72-5.453c-0.134-0.075-0.251-0.176-0.344-0.298s-0.161-0.261-0.199-0.409c-0.038-0.149-0.045-0.303-0.022-0.455s0.078-0.297 0.159-0.427c0.081-0.13 0.188-0.242 0.314-0.33s0.268-0.149 0.418-0.18c0.15-0.031 0.305-0.031 0.455-0s0.293 0.091 0.419 0.179l8.933 5.587 8.933-5.587c0.126-0.087 0.269-0.148 0.419-0.179s0.305-0.030 0.455 0 0.293 0.092 0.418 0.18c0.126 0.088 0.233 0.2 0.314 0.33s0.135 0.275 0.159 0.427c0.024 0.152 0.016 0.306-0.022 0.455s-0.106 0.288-0.199 0.409c-0.093 0.122-0.21 0.223-0.344 0.298z"></path>
</symbol>
<symbol id="icon-facebook" viewBox="0 0 32 32">
<path d="M29.333 16c0-7.36-5.973-13.333-13.333-13.333s-13.333 5.973-13.333 13.333c0 6.453 4.587 11.827 10.667 13.067v-9.067h-2.667v-4h2.667v-3.333c0-2.573 2.093-4.667 4.667-4.667h3.333v4h-2.667c-0.733 0-1.333 0.6-1.333 1.333v2.667h4v4h-4v9.267c6.733-0.667 12-6.347 12-13.267z"></path>
</symbol>
<symbol id="icon-instagram" viewBox="0 0 32 32">
<path d="M17.371 2.667c1.5 0.004 2.261 0.012 2.919 0.031l0.259 0.009c0.299 0.011 0.593 0.024 0.949 0.040 1.419 0.067 2.387 0.291 3.236 0.62 0.88 0.339 1.621 0.797 2.363 1.537 0.678 0.666 1.203 1.473 1.537 2.363 0.329 0.849 0.553 1.817 0.62 3.237 0.016 0.355 0.029 0.649 0.040 0.949l0.008 0.259c0.020 0.656 0.028 1.417 0.031 2.917l0.001 0.995v1.747c0.003 0.973-0.007 1.945-0.031 2.917l-0.008 0.259c-0.011 0.3-0.024 0.595-0.040 0.949-0.067 1.42-0.293 2.387-0.621 3.237-0.335 0.89-0.859 1.696-1.537 2.363-0.666 0.678-1.473 1.203-2.363 1.537-0.849 0.329-1.817 0.553-3.236 0.62l-0.949 0.040-0.259 0.008c-0.657 0.019-1.419 0.028-2.919 0.031l-2.74 0.001c-0.973 0.003-1.946-0.007-2.919-0.031l-0.259-0.008c-0.317-0.012-0.633-0.026-0.949-0.041-1.419-0.067-2.387-0.291-3.237-0.62-0.89-0.335-1.695-0.859-2.361-1.537-0.679-0.666-1.204-1.473-1.539-2.363-0.329-0.849-0.553-1.817-0.62-3.237l-0.040-0.949-0.007-0.259c-0.025-0.972-0.036-1.945-0.033-2.917v-2.741c-0.004-0.973 0.006-1.945 0.029-2.917l0.009-0.259c0.011-0.3 0.024-0.595 0.040-0.949 0.067-1.42 0.291-2.387 0.62-3.237 0.336-0.89 0.862-1.697 1.541-2.363 0.666-0.678 1.471-1.203 2.36-1.537 0.851-0.329 1.817-0.553 3.237-0.62 0.355-0.016 0.651-0.029 0.949-0.040l0.259-0.008c0.972-0.024 1.945-0.034 2.917-0.031l2.741-0.001zM16 9.333c-1.768 0-3.464 0.702-4.714 1.953s-1.953 2.946-1.953 4.714c0 1.768 0.702 3.464 1.953 4.714s2.946 1.953 4.714 1.953c1.768 0 3.464-0.702 4.714-1.953s1.953-2.946 1.953-4.714-0.702-3.464-1.953-4.714c-1.25-1.25-2.946-1.953-4.714-1.953zM16 12c0.525-0 1.045 0.103 1.531 0.304s0.926 0.495 1.298 0.867c0.371 0.371 0.666 0.812 0.867 1.298s0.305 1.005 0.305 1.531c0 0.525-0.103 1.045-0.304 1.531s-0.495 0.926-0.867 1.298c-0.371 0.371-0.812 0.666-1.297 0.867s-1.005 0.305-1.531 0.305c-1.061 0-2.078-0.421-2.828-1.172s-1.172-1.768-1.172-2.828 0.421-2.078 1.172-2.828c0.75-0.75 1.768-1.172 2.828-1.172zM23.001 7.333c-0.442 0-0.866 0.176-1.179 0.488s-0.488 0.736-0.488 1.178c0 0.442 0.176 0.866 0.488 1.178s0.736 0.488 1.179 0.488c0.442 0 0.866-0.176 1.178-0.488s0.488-0.736 0.488-1.178-0.176-0.866-0.488-1.178c-0.313-0.313-0.736-0.488-1.178-0.488z"></path>
</symbol>
<symbol id="icon-telegram" viewBox="0 0 32 32">
<path d="M16 2.667c-7.36 0-13.333 5.973-13.333 13.333s5.973 13.333 13.333 13.333c7.36 0 13.333-5.973 13.333-13.333s-5.973-13.333-13.333-13.333zM22.187 11.733c-0.2 2.107-1.067 7.227-1.507 9.587-0.187 1-0.56 1.333-0.907 1.373-0.773 0.067-1.36-0.507-2.107-1-1.173-0.773-1.84-1.253-2.973-2-1.32-0.867-0.467-1.347 0.293-2.12 0.2-0.2 3.613-3.307 3.68-3.587 0.009-0.042 0.008-0.086-0.004-0.128s-0.033-0.080-0.063-0.112c-0.080-0.067-0.187-0.040-0.28-0.027-0.12 0.027-1.987 1.267-5.627 3.72-0.533 0.36-1.013 0.547-1.44 0.533-0.48-0.013-1.387-0.267-2.067-0.493-0.84-0.267-1.493-0.413-1.44-0.88 0.027-0.24 0.36-0.48 0.987-0.733 3.893-1.693 6.48-2.813 7.773-3.347 3.707-1.547 4.467-1.813 4.973-1.813 0.107 0 0.36 0.027 0.52 0.16 0.133 0.107 0.173 0.253 0.187 0.36-0.013 0.080 0.013 0.32 0 0.507z"></path>
</symbol>

</defs>
</svg>