<svg aria-hidden="true" style="position: absolute; width: 0; height: 0; overflow: hidden;" version="1.1" xmlns="http://www.w3.org/2000/svg" xmlns:xlink="http://www.w3.org/1999/xlink">
<defs>

<symbol id="icon-phone" viewBox="0 0 32 32">
<path d="M22.069 29.511c-1.92-0.071-7.361-0.823-13.060-6.52-5.697-5.699-6.448-11.139-6.52-13.060-0.107-2.928 2.136-5.772 4.727-6.883 0.312-0.135 0.654-0.186 0.991-0.149s0.66 0.162 0.935 0.361c2.133 1.555 3.605 3.907 4.869 5.756 0.278 0.406 0.397 0.901 0.334 1.389s-0.303 0.936-0.675 1.259l-2.601 1.932c-0.126 0.091-0.214 0.224-0.249 0.375s-0.014 0.31 0.060 0.446c0.589 1.071 1.637 2.665 2.837 3.865s2.871 2.317 4.016 2.973c0.144 0.081 0.313 0.103 0.472 0.063s0.298-0.14 0.386-0.279l1.693-2.577c0.311-0.414 0.771-0.691 1.282-0.773s1.034 0.036 1.46 0.33c1.876 1.299 4.065 2.745 5.668 4.797 0.215 0.277 0.353 0.607 0.397 0.955s-0.006 0.702-0.145 1.025c-1.116 2.604-3.94 4.821-6.877 4.713z"></path>
</symbol>
<symbol id="icon-mail" viewBox="0 0 32 32">
<path d="M26.667 5.333h-21.333c-1.467 0-2.667 1.2-2.667 2.667v16c0 1.467 1.2 2.667 2.667 2.667h21.333c1.467 0 2.667-1.2 2.667-2.667v-16c0-1.467-1.2-2.667-2.667-2.667zM26.133 11l-8.72 5.453c-0.867 0.547-1.96 0.547-2.827 0l-8.72-5.453c-0.134-0.075-0.251-0.176-0.344-0.298s-0.161-0.261-0.199-0.409c-0.038-0.149-0.045-0.303-0.022-0.455s0.078-0.297 0.159-0.427c0.081-0.13 0.188-0.242 0.314-0.33s0.268-0.149 0.418-0.18c0.15-0.031 0.305-0.031 0.455-0s0.293 0.091 0.419 0.179l8.933 5.587 8.933-5.587c0.126-0.087 0.269-0.148 0.419-0.179s0.305-0.030 0.455 0 0.293 0.092 0.418 0.18c0.126 0.088 0.233 0.2 0.314 0.33s0.135 0.275 0.159 0.427c0.024 0.152 0.016 0.306-0.022 0.455s-0.106 0.288-0.199 0.409c-0.093 0.122-0.21 0.223-0.344 0.298z"></path>
</symbol>
<symbol id="icon-facebook" viewBox="0 0 32 32">
<path d="M29.333 16c0-7.36-5.973-13.333-13.333-13.333s-13.333 5.973-13.333 13.333c0 6.453 4.587 11.827 10.667 13.067v-9.067h-2.667v-4h2.667v-3.333c0-2.573 2.093-4.667 4.667-4.667h3.333v4h-2.667c-0.733 0-1.333 0.6-1.333 1.333v2.667h4v4h-4v9.267c6.733-0.667 12-6.347 12-13.267z"></path>
</symbol>
<symbol id="icon-instagram" viewBox="0 0 32 32">
<path d="M17.371 2.667c1.5 0.004 2.261 0.012 2.919 0.031l0.259 0.009c0.299 0.011 0.593 0.024 0.949 0.040 1.419 0.067 2.387 0.291 3.236 0.62 0.88 0.339 1.621 0.797 2.363 1.537 0.678 0.666 1.203 1.473 1.537 2.363 0.329 0.849 0.553 1.817 0.62 3.237 0.016 0.355 0.029 0.649 0.040 0.949l0.008 0.259c0.020 0.656 0.028 1.417 0.031 2.917l0.001 0.995v1.747c0.003 0.973-0.007 1.945-0.031 2.917l-0.008 0.259c-0.011 0.3-0.024 0.595-0.040 0.949-0.067 1.42-0.293 2.387-0.621 3.237-0.335 0.89-0.859 1.696-1.537 2.363-0.666 0.678-1.473 1.203-2.363 1.537-0.849 0.329-1.817 0.553-3.236 0.62l-0.949 0.040-0.259 0.008c-0.657 0.019-1.419 0.028-2.919 0.031l-2.74 0.001c-0.973 0.003-1.946-0.007-2.919-0.031l-0.259-0.008c-0.317-0.012-0.633-0.026-0.949-0.041-1.419-0.067-2.387-0.291-3.237-0.62-0.89-0.335-1.695-0.859-2.361-1.537-0.679-0.666-1.204-1.473-1.539-2.363-0.329-0.849-0.553-1.817-0.62-3.237l-0.040-0.949-0.007-0.259c-0.025-0.972-0.036-1.945-0.033-2.917v-2.741c-0.004-0.973 0.006-1.945 0.029-2.917l0.009-0.259c0.011-0.3 0.024-0.595 0.040-0.949 0.067-1.42 0.291-2.387 0.62-3.237 0.336-0.89 0.862-1.697 1.541-2.363 0.666-0.678 1.471-1.203 2.36-1.537 0.851-0.329 1.817-0.553 3.237-0.62 0.355-0.016 0.651-0.029 0.949-0.040l0.259-0.008c0.972-0.024 1.945-0.034 2.917-0.031l2.741-0.001zM16 9.333c-1.768 0-3.464 0.702-4.714 1.953s-1.953 2.946-1.953 4.714c0 1.768 0.702 3.464 1.953 4.714s2.946 1.953 4.714 1.953c1.768 0 3.464-0.702 4.714-1.953s1.953-2.946 1.953-4.714-0.702-3.464-1.953-4.714c-1.25-1.25-2.946-1.953-4.714-1.953zM16 12c0.525-0 1.045 0.103 1.531 0.304s0.926 0.495 1.298 0.867c0.371 0.371 0.666 0.812 0.867 1.298s0.305 1.005 0.305 1.531c0 0.525-0.103 1.045-0.304 1.531s-0.495 0.926-0.867 1.298c-0.371 0.371-0.812 0.666-1.297 0.867s-1.005 0.305-1.531 0.305c-1.061 0-2.078-0.421-2.828-1.172s-1.172-1.768-1.172-2.828 0.421-2.078 1.172-2.828c0.75-0.75 1.768-1.172 2.828-1.172zM23.001 7.333c-0.442 0-0.866 0.176-1.179 0.488s-0.488 0.736-0.488 1.178c0 0.442 0.176 0.866 0.488 1.178s0.736 0.488 1.179 0.488c0.442 0 0.866-0.176 1.178-0.488s0.488-0.736 0.488-1.178-0.176-0.866-0.488-1.178c-0.313-0.313-0.736-0.488-1.178-0.488z"></path>
</symbol>
<symbol id="icon-telegram" viewBox="0 0 32 32">
<path d="M16 2.667c-7.36 0-13.333 5.973-13.333 13.333s5.973 13.333 13.333 13.333c7.36 0 13.333-5.973 13.333-13.333s-5.973-13.333-13.333-13.333zM22.187 11.733c-0.2 2.107-1.067 7.227-1.507 9.587-0.187 1-0.56 1.333-0.907 1.373-0.773 0.067-1.36-0.507-2.107-1-1.173-0.773-1.84-1.253-2.973-2-1.32-0.867-0.467-1.347 0.293-2.12 0.2-0.2 3.613-3.307 3.68-3.587 0.009-0.042 0.008-0.086-0.004-0.128s-0.033-0.080-0.063-0.112c-0.080-0.067-0.187-0.040-0.28-0.027-0.12 0.027-1.987 1.267-5.627 3.72-0.533 0.36-1.013 0.547-1.44 0.533-0.48-0.013-1.387-0.267-2.067-0.493-0.84-0.267-1.493-0.413-1.44-0.88 0.027-0.24 0.36-0.48 0.987-0.733 3.893-1.693 6.48-2.813 7.773-3.347 3.707-1.547 4.467-1.813 4.973-1.813 0.107 0 0.36 0.027 0.52 0.16 0.133 0.107 0.173 0.253 0.187 0.36-0.013 0.080 0.013 0.32 0 0.507z"></path>
</symbol>
<symbol id="icon-burger" viewBox="0 0 32 32">
<path d="M4 9c0-0.552 0.448-1 1-1h22c0.552 0 1 0.448 1 1s-0.448 1-1 1h-22c-0.552 0-1-0.448-1-1zM4 16c0-0.552 0.448-1 1-1h22c0.552 0 1 0.448 1 1s-0.448 1-1 1h-22c-0.552 0-1-0.448-1-1zM15 23c0-0.552 0.448-1 1-1h11c0.552 0 1 0.448 1 1s-0.448 1-1 1h-11c-0.552 0-1-0.448-1-1z"></path>
</symbol>
<symbol id="icon-navigationArrow" viewBox="0 0 53 32">
<path fill="none" stroke="#442d0b" style="stroke: var(--color1, #442d0b)" stroke-linejoin="miter" stroke-linecap="butt" stroke-miterlimit="4" stroke-width="5.3333" d="M1.954 1.815l23.111 24.889 23.111-24.889"></path>
</symbol>
<symbol id="icon-fonar" viewBox="0 0 37 32">
<path d="M31.849 13.457v2.062h-4.118c-0.569 0-1.030 0.462-1.030 1.031s0.461 1.031 1.030 1.031h4.118v3.79c0 0.903-0.38 1.765-1.047 2.373-1.766 1.609-3.936 2.521-6.16 2.736v1.411c0 0.569-0.461 1.031-1.030 1.031s-1.030-0.462-1.030-1.031v-1.411c-2.224-0.215-4.394-1.127-6.16-2.736-0.667-0.608-1.047-1.469-1.047-2.373v-8.944c0-2.592 0-3.888 0.804-4.693s2.098-0.805 4.687-0.805h5.491c2.589 0 3.883 0 4.687 0.805 0.69 0.691 0.788 1.742 0.802 3.662h-5.489c-0.569 0-1.030 0.462-1.030 1.031s0.461 1.031 1.030 1.031h5.491z"></path>
<path d="M21.27 1.57c-0.911-0.749-2.051-1.162-3.23-1.171l-0.066-0h-5.419c-1.877-0-3.391-0-4.581 0.16-1.236 0.166-2.276 0.522-3.102 1.35s-1.182 1.869-1.348 3.106c-0.16 1.192-0.16 2.707-0.16 4.587v19.663c0 0.569 0.461 1.031 1.030 1.031s1.030-0.462 1.030-1.031v-19.588c0-1.973 0.002-3.349 0.142-4.387 0.135-1.009 0.383-1.543 0.763-1.923s0.913-0.628 1.921-0.764l4.382-0.142 5.398 0c0.706 0.006 1.388 0.253 1.933 0.701l0.002 0.002 0.048 0.040c0.049 0.041 0.083 0.069 0.114 0.094 0.732 0.592 1.583 0.952 2.458 1.086v2.545h2.059v-2.648c0.842-0.216 1.639-0.648 2.302-1.292 0.028-0.028 0.060-0.059 0.105-0.105l0.724-0.724c0.402-0.403 0.402-1.055 0-1.458s-1.054-0.403-1.456 0l-0.717 0.718c-0.054 0.054-0.073 0.073-0.089 0.089-0.26 0.253-0.554 0.451-0.868 0.594v-0.672c0-0.569-0.461-1.031-1.030-1.031s-1.030 0.462-1.030 1.031v0.852c-0.414-0.108-0.812-0.303-1.164-0.588l-0.149-0.124z"></path>
</symbol>
<symbol id="icon-gradusnik" viewBox="0 0 32 32">
<path d="M5.047 29.259l-0.654 0.654c-1.005 1.005-2.634 1.005-3.639 0s-1.005-2.634 0-3.639l0.654-0.654c0.737-0.737 1.099-1.769 0.984-2.805l-0.151-1.361c-0.173-1.554 0.37-3.102 1.476-4.208l15.235-15.235c2.68-2.68 7.025-2.68 9.705 0s2.68 7.025 0 9.705l-1.523 1.523-2.216-2.216c-0.499-0.499-1.308-0.499-1.807 0s-0.499 1.308 0 1.807l2.216 2.216-3.644 3.644-2.216-2.216c-0.499-0.499-1.308-0.499-1.807 0s-0.499 1.308 0 1.807l2.216 2.216-3.661 3.661-2.216-2.216c-0.499-0.499-1.308-0.499-1.807 0s-0.499 1.308 0 1.807l2.216 2.216-0.987 0.987c-1.106 1.106-2.654 1.649-4.208 1.476l-1.361-0.151c-1.036-0.115-2.068 0.247-2.805 0.984zM22.2 10.274c0.499-0.499 0.499-1.308 0-1.807s-1.308-0.499-1.807 0l-11.074 11.074c-0.499 0.499-0.499 1.308 0 1.807s1.308 0.499 1.807 0l11.074-11.074z"></path>
</symbol>
<symbol id="icon-medushi" viewBox="0 0 32 32">
<path d="M16 1.667c0.552 0 1 0.448 1 1v0.335c0.148 0.002 0.275 0.007 0.393 0.018 2.414 0.213 4.327 2.127 4.54 4.54 0.020 0.221 0.020 0.471 0.019 0.838v1.631c0 5.159-3.925 9.401-8.952 9.903v2.736c0 3.13 2.537 5.667 5.667 5.667h1.177c1.864 0 3.465-1.136 4.144-2.757 0.053-0.127 0.090-0.271 0.113-0.437-1.606-0.52-2.767-2.027-2.767-3.806 0-2.209 1.791-4 4-4s4 1.791 4 4c0 1.947-1.391 3.569-3.234 3.927-0.037 0.351-0.115 0.723-0.268 1.089-0.98 2.339-3.291 3.984-5.989 3.984h-1.177c-4.234 0-7.667-3.433-7.667-7.667v-2.734c-5.238-0.503-9.333-4.916-9.333-10.286v-1.25c-0-0.367-0-0.617 0.019-0.838 0.213-2.413 2.127-4.327 4.54-4.54 0.208-0.018 0.441-0.019 0.774-0.019v-0.333c0-0.552 0.448-1 1-1s1 0.448 1 1v2.667c0 0.552-0.448 1-1 1s-1-0.448-1-1v-0.333c-0.351 0-0.488 0.002-0.598 0.012-1.448 0.128-2.596 1.276-2.724 2.724-0.011 0.121-0.012 0.275-0.012 0.713v1.198c0 4.602 3.731 8.333 8.333 8.333 4.392 0 7.952-3.56 7.952-7.952v-1.579c0-0.439-0.001-0.593-0.012-0.713-0.128-1.448-1.276-2.596-2.724-2.724-0.056-0.005-0.12-0.008-0.217-0.010v0.331c0 0.552-0.448 1-1 1s-1-0.448-1-1v-2.667c0-0.552 0.448-1 1-1z"></path>
</symbol>
<symbol id="icon-bottleplus" viewBox="0 0 37 32">
<path d="M6.469 1.054c-0.126 0.306-0.126 0.693-0.126 1.468s0 1.162 0.126 1.468c0.169 0.408 0.492 0.731 0.899 0.9 0.305 0.127 0.692 0.127 1.466 0.127h14.95c0.774 0 1.161 0 1.466-0.127 0.407-0.169 0.73-0.493 0.899-0.9 0.126-0.306 0.126-0.693 0.126-1.468s0-1.162-0.126-1.468c-0.169-0.408-0.492-0.731-0.899-0.9-0.305-0.127-0.692-0.127-1.466-0.127h-14.95c-0.774 0-1.161 0-1.466 0.127-0.407 0.169-0.73 0.493-0.899 0.9z"></path>
<path d="M9.249 6.68l-3.735 2.992c-0.818 0.655-1.458 1.484-1.885 2.413h25.371c-0.422-0.927-1.055-1.756-1.866-2.413l-3.692-2.993h-14.193z"></path>
<path d="M29.598 14.844v10.548h-26.577v-10.524c0-0.096 0.002-0.192 0.006-0.287h26.566c0.003 0.088 0.005 0.175 0.005 0.263zM17.555 18.739v-2.079c0-0.689-0.558-1.247-1.246-1.247s-1.246 0.559-1.246 1.247v2.079h-2.076c-0.688 0-1.246 0.558-1.246 1.247s0.558 1.247 1.246 1.247h2.076v2.079c0 0.689 0.558 1.247 1.246 1.247s1.246-0.558 1.246-1.247v-2.079h2.076c0.688 0 1.246-0.558 1.246-1.247s-0.558-1.247-1.246-1.247h-2.076z"></path>
<path d="M4.56 30.153c-0.56-0.672-0.977-1.443-1.235-2.266h25.974c-0.254 0.819-0.665 1.587-1.217 2.258l-0.595 0.724c-1.262 1.535-3.144 2.424-5.129 2.424h-11.104c-0.949 0-1.423 0-1.873-0.062-1.334-0.183-2.58-0.768-3.575-1.677-0.335-0.306-0.639-0.671-1.246-1.401z"></path>
</symbol>
<symbol id="icon-circlebtns" viewBox="0 0 37 32">
<path d="M20.029 1.704c0 0.463-0.184 0.907-0.511 1.234s-0.77 0.511-1.233 0.511-0.906-0.184-1.233-0.511c-0.327-0.327-0.511-0.771-0.511-1.234s0.184-0.907 0.511-1.234c0.327-0.327 0.77-0.511 1.233-0.511s0.906 0.184 1.233 0.511c0.327 0.327 0.511 0.771 0.511 1.234zM10.161 5.789c0 0.463-0.184 0.907-0.511 1.234s-0.77 0.511-1.233 0.511-0.906-0.184-1.233-0.511c-0.327-0.327-0.511-0.771-0.511-1.234s0.184-0.907 0.511-1.234c0.327-0.327 0.77-0.511 1.233-0.511s0.906 0.184 1.233 0.511c0.327 0.327 0.511 0.771 0.511 1.234zM29.897 5.789c0 0.463-0.184 0.907-0.511 1.234s-0.77 0.511-1.233 0.511-0.906-0.184-1.233-0.511c-0.327-0.327-0.511-0.771-0.511-1.234s0.184-0.907 0.511-1.234 0.77-0.511 1.233-0.511c0.462 0 0.906 0.184 1.233 0.511s0.511 0.771 0.511 1.234zM29.897 25.551c0 0.463-0.184 0.907-0.511 1.234s-0.77 0.511-1.233 0.511-0.906-0.184-1.233-0.511c-0.327-0.327-0.511-0.771-0.511-1.234s0.184-0.907 0.511-1.234c0.327-0.327 0.77-0.511 1.233-0.511s0.906 0.184 1.233 0.511c0.327 0.327 0.511 0.771 0.511 1.234zM10.161 25.551c0 0.463-0.184 0.907-0.511 1.234s-0.77 0.511-1.233 0.511-0.906-0.184-1.233-0.511c-0.327-0.327-0.511-0.771-0.511-1.234s0.184-0.907 0.511-1.234c0.327-0.327 0.77-0.511 1.233-0.511s0.906 0.184 1.233 0.511c0.327 0.327 0.511 0.771 0.511 1.234zM33.977 15.67c0 0.463-0.184 0.907-0.511 1.234s-0.77 0.511-1.233 0.511-0.906-0.184-1.233-0.511c-0.327-0.327-0.511-0.771-0.511-1.234s0.184-0.907 0.511-1.234c0.327-0.327 0.77-0.511 1.233-0.511s0.906 0.184 1.233 0.511c0.327 0.327 0.511 0.771 0.511 1.234zM20.029 29.636c0 0.463-0.184 0.907-0.511 1.234s-0.77 0.511-1.233 0.511-0.906-0.184-1.233-0.511c-0.327-0.327-0.511-0.771-0.511-1.234s0.184-0.907 0.511-1.234c0.327-0.327 0.77-0.511 1.233-0.511s0.906 0.184 1.233 0.511c0.327 0.327 0.511 0.771 0.511 1.234zM6.082 15.67c0 0.463-0.184 0.907-0.511 1.234s-0.77 0.511-1.233 0.511-0.906-0.184-1.233-0.511c-0.327-0.327-0.511-0.771-0.511-1.234s0.184-0.907 0.511-1.234c0.327-0.327 0.77-0.511 1.233-0.511s0.906 0.184 1.233 0.511c0.327 0.327 0.511 0.771 0.511 1.234z"></path>
</symbol>
<symbol id="icon-listik" viewBox="0 0 34 32">
<path d="M25.148 8.348c-15.089 3.357-18.609 13.715-22.097 22.394l3.169 1.108 1.593-3.861c0.805 0.285 1.643 0.504 2.247 0.504 18.442 0 23.471-28.538 23.471-28.538-1.677 3.357-13.412 3.777-21.795 5.456s-11.736 8.813-11.736 12.171c0 3.357 2.934 6.295 2.934 6.295 5.449-15.528 22.214-15.528 22.214-15.528z"></path>
</symbol>
<symbol id="icon-heartplus" viewBox="0 0 38 32">
<path d="M13.191 28.934c2.524 1.913 3.786 2.869 5.757 2.869s3.233-0.956 5.757-2.869c5.575-4.225 13.191-11.205 13.191-17.805 0-11.025-10.421-15.141-18.947-6.624-8.526-8.517-18.947-4.401-18.947 6.624 0 6.6 7.616 13.579 13.191 17.805zM27.474 6.039c0.785 0 1.421 0.629 1.421 1.405v2.342h2.368c0.785 0 1.421 0.629 1.421 1.405s-0.636 1.405-1.421 1.405h-2.368v2.342c0 0.776-0.636 1.405-1.421 1.405s-1.421-0.629-1.421-1.405v-2.342h-2.368c-0.785 0-1.421-0.629-1.421-1.405s0.636-1.405 1.421-1.405h2.368v-2.342c0-0.776 0.636-1.405 1.421-1.405z"></path>
</symbol>
<symbol id="icon-caseplus" viewBox="0 0 37 32">
<path d="M17.814 15.464c0.615 0 1.113 0.498 1.113 1.113v1.113h1.113c0.615 0 1.113 0.498 1.113 1.113s-0.498 1.113-1.113 1.113h-1.113v1.113c0 0.615-0.498 1.113-1.113 1.113s-1.113-0.498-1.113-1.113v-1.113h-1.113c-0.615 0-1.113-0.498-1.113-1.113s0.498-1.113 1.113-1.113h1.113v-1.113c0-0.615 0.498-1.113 1.113-1.113z"></path>
<path d="M17.737-0.124c-1.334-0-2.446-0-3.329 0.119-0.932 0.125-1.773 0.401-2.45 1.077s-0.952 1.518-1.077 2.45c-0.119 0.883-0.119 1.995-0.119 3.329v0.115c-3.001 0.098-4.802 0.449-6.055 1.701-1.739 1.739-1.739 4.539-1.739 10.137s0 8.398 1.739 10.137c1.739 1.739 4.538 1.739 10.137 1.739h5.938c5.599 0 8.398 0 10.137-1.739s1.739-4.539 1.739-10.137c0-5.598 0-8.398-1.739-10.137-1.252-1.252-3.054-1.603-6.055-1.701v-0.115c0-1.334 0-2.446-0.119-3.329-0.125-0.932-0.401-1.773-1.077-2.45s-1.518-0.952-2.45-1.077c-0.883-0.119-1.995-0.119-3.329-0.119h-0.154zM22.639 6.931v-0.003c0-1.431-0.002-2.392-0.099-3.11-0.092-0.685-0.251-0.978-0.445-1.172s-0.487-0.353-1.172-0.445c-0.717-0.096-1.678-0.099-3.11-0.099s-2.392 0.002-3.11 0.099c-0.685 0.092-0.978 0.251-1.172 0.445s-0.353 0.487-0.445 1.172c-0.096 0.717-0.099 1.678-0.099 3.109v0.003c0.582-0.003 1.2-0.003 1.856-0.003h5.938c0.656 0 1.274 0 1.856 0.003zM23.753 18.804c0 3.28-2.659 5.938-5.938 5.938s-5.938-2.659-5.938-5.938c0-3.28 2.659-5.938 5.938-5.938s5.938 2.659 5.938 5.938z"></path>
</symbol>
<symbol id="icon-arrowRight" viewBox="0 0 64 32">
<path d="M61.414 16.142c0.781-0.781 0.781-2.047 0-2.828l-12.728-12.728c-0.781-0.781-2.048-0.781-2.828 0s-0.781 2.047 0 2.828l11.314 11.314-11.314 11.314c-0.781 0.781-0.781 2.047 0 2.828s2.047 0.781 2.828 0l12.728-12.728zM0 14.728v2h60v-4h-60v2z"></path>
</symbol>
<symbol id="icon-star" viewBox="0 0 33 32">
<path d="M16.344 0l3.858 11.875h12.486l-10.101 7.339 3.858 11.875-10.101-7.339-10.101 7.339 3.858-11.875-10.101-7.339h12.486l3.858-11.875z"></path>
</symbol>
<symbol id="icon-chat" viewBox="0 0 32 32">
<path d="M11.273 15.636c0 0.803-0.651 1.455-1.455 1.455s-1.455-0.651-1.455-1.455c0-0.803 0.651-1.455 1.455-1.455s1.455 0.651 1.455 1.455z"></path>
<path d="M17.091 15.636c0 0.803-0.651 1.455-1.455 1.455s-1.455-0.651-1.455-1.455c0-0.803 0.651-1.455 1.455-1.455s1.455 0.651 1.455 1.455z"></path>
<path d="M22.909 15.636c0 0.803-0.651 1.455-1.455 1.455s-1.455-0.651-1.455-1.455c0-0.803 0.651-1.455 1.455-1.455s1.455 0.651 1.455 1.455z"></path>
<path d="M31.273 15.636c0-8.636-7.001-15.636-15.636-15.636s-15.636 7.001-15.636 15.636c0 2.499 0.587 4.865 1.632 6.963 0.156 0.313 0.189 0.633 0.117 0.902l-0.866 3.238c-0.593 2.216 1.435 4.244 3.651 3.651l3.238-0.866c0.269-0.072 0.589-0.039 0.902 0.117 2.098 1.045 4.463 1.632 6.963 1.632 8.636 0 15.636-7.001 15.636-15.636zM15.636 2.182c7.431 0 13.455 6.024 13.455 13.455s-6.024 13.455-13.455 13.455c-2.154 0-4.187-0.505-5.99-1.403-0.723-0.36-1.589-0.499-2.438-0.272l-3.238 0.866c-0.595 0.159-1.139-0.385-0.98-0.98l0.866-3.238c0.227-0.85 0.089-1.715-0.272-2.438-0.898-1.803-1.403-3.836-1.403-5.99 0-7.431 6.024-13.455 13.455-13.455z"></path>
</symbol>
<symbol id="icon-close" viewBox="0 0 32 32">
<path d="M29.855 5.761c0.244-0.236 0.439-0.518 0.573-0.829s0.205-0.647 0.208-0.986c0.003-0.339-0.061-0.676-0.19-0.99s-0.318-0.6-0.558-0.84c-0.24-0.24-0.525-0.43-0.839-0.559s-0.651-0.193-0.99-0.191-0.675 0.073-0.986 0.207c-0.312 0.134-0.594 0.328-0.83 0.572l-10.243 10.239-10.239-10.239c-0.234-0.251-0.516-0.452-0.83-0.592s-0.652-0.215-0.995-0.221c-0.343-0.006-0.684 0.057-1.002 0.186s-0.607 0.32-0.85 0.563c-0.243 0.243-0.434 0.532-0.563 0.85s-0.192 0.659-0.186 1.002c0.006 0.343 0.081 0.682 0.221 0.995s0.341 0.596 0.592 0.83l10.232 10.243-10.239 10.239c-0.451 0.484-0.697 1.125-0.685 1.787s0.28 1.294 0.748 1.762c0.468 0.468 1.1 0.737 1.762 0.748s1.303-0.234 1.787-0.685l10.246-10.239 10.239 10.243c0.484 0.451 1.125 0.697 1.787 0.686s1.294-0.28 1.762-0.748c0.468-0.468 0.737-1.1 0.748-1.762s-0.234-1.303-0.686-1.787l-10.232-10.243 10.236-10.239z"></path>
</symbol>
</defs>
</svg>